<?xml version="1.0" encoding="utf-8"?>
<!-- Generator: Adobe Illustrator 16.0.0, SVG Export Plug-In . SVG Version: 6.00 Build 0)  -->
<!DOCTYPE svg PUBLIC "-//W3C//DTD SVG 1.1//EN" "http://www.w3.org/Graphics/SVG/1.1/DTD/svg11.dtd">
<svg version="1.1" id="Layer_1" xmlns="http://www.w3.org/2000/svg" xmlns:xlink="http://www.w3.org/1999/xlink" x="0px" y="0px"
	 width="267.649px" height="195.471px" viewBox="0 0 267.649 195.471" enable-background="new 0 0 267.649 195.471"
	 xml:space="preserve">
<rect x="-2096.453" y="146.962" fill="none" width="191.597" height="120.168"/>
<text transform="matrix(1 0 0 1 -2085.916 233.4907)" fill="#E46827" font-family="'FbTamlilCondensed-Regular'" font-size="110">חרקב</text>
<rect x="-2213.58" y="-54.132" fill="none" width="201.314" height="97.478"/>
<text transform="matrix(1 0 0 1 -2218.501 16.6641)" fill="#3A1533" font-family="'FbTamlilCondensed-Regular'" font-size="90">
כוכבים</text>
<path fill="none" stroke="#E46827" stroke-width="7" stroke-miterlimit="10" d="M-1708.708-69.083c0-20.911,0-41.822,0-62.733
	c0-19.745,29.617-19.745,29.617,0c0,20.911,0,41.822,0,62.733"/>
<rect x="-2024.037" y="-201.346" fill="none" width="191.597" height="120.168"/>
<text transform="matrix(1 0 0 1 -2050.9365 -114.8174)" font-family="'FbTamlilCondensed-Regular'" font-size="110">
בקרחת</text>
<rect x="-869.259" y="-103.593" fill="#3A1533" width="107.182" height="835.571"/>
<rect x="-994.484" y="-103.593" fill="#FDC43D" width="113.887" height="835.571"/>
<text transform="matrix(1 0 0 1 -2459.8174 485.981)"><tspan x="0" y="0" font-family="'FbTamlilCondensed-Regular'" font-size="50">
תחרקב םיבכוכ</tspan><tspan x="-37.453" y="60" font-family="'FbTamlilCondensed-Regular'" font-size="50">
?םהלש דוסה המ</tspan></text>
<text transform="matrix(1 0 0 1 -1012.2598 -212.2598)" fill="#E46827" font-family="'FbTamlilCondensed-Regular'" font-size="40">
?םהלש דוסה המ</text>
<text transform="matrix(1 0 0 1 -2208.2598 265.0015)" fill="#E46827" font-family="'FbTamlilCondensed-Regular'" font-size="40">
?םהלש דוסה המ</text>
<g>
	<rect x="-1409.813" y="5.34" fill="none" width="201.314" height="97.478"/>
	<text transform="matrix(1 0 0 1 -1414.7329 76.1362)" fill="#3A1533" font-family="'FbTamlilCondensed-Regular'" font-size="90">
םיבכוכ</text>
	<path fill="#E46827" d="M-1412.904,151.108h-7.144v-55c0-3.223-0.681-5.479-2.041-6.768c-1.361-1.289-3.349-1.897-5.962-1.826
		l-11.118,0.107v55.107v8.379h-15.522v-6.821h8.701l-0.322-56.45h-4.727v-6.929l24.17-0.215c1.754,0,3.455,0.188,5.103,0.564
		c1.646,0.376,3.133,1.074,4.458,2.095c1.324,1.021,2.39,2.426,3.196,4.216c0.805,1.791,1.208,4.118,1.208,6.982V151.108z"/>
	<g>
		<path fill="#E46827" d="M-1398.929,151.345V99.109c0-7.812,5.68-11.309,11.309-11.309s11.309,3.497,11.309,11.309v52.236h7V99.109
			c0-12.02-9.211-18.309-18.309-18.309c-9.099,0-18.309,6.289-18.309,18.309v52.236H-1398.929z"/>
	</g>
	<path fill="#E46827" d="M-1341.922,151.108V96.43c0-3.223-0.591-5.514-1.772-6.875c-1.182-1.36-3.08-2.041-5.693-2.041h-15.2V80.8
		h16.274c1.754,0,3.438,0.188,5.049,0.564s3.062,1.057,4.351,2.041c1.289,0.985,2.318,2.373,3.088,4.163
		c0.771,1.791,1.155,4.118,1.155,6.982v56.558H-1341.922z"/>
	<path fill="#E46827" d="M-1305.288,151h-7.197l13.32-63.486h-28.145V80.8h36.309L-1305.288,151z M-1327.31,177.907v-79.06h7.036
		v79.06H-1327.31z"/>
	
		<text transform="matrix(1 0 0 1 -1463.4546 177.9048)" fill="#6D6E71" font-family="'FbTamlilCondensed-Regular'" font-size="29.3">
ןורתי וא ןורתפ</text>
	<g>
		<path fill="#E46827" d="M-1287.275,151.108v-6.821h20.249V87.514h-19.712V80.8h26.963v63.486h5.693v6.821H-1287.275z"/>
	</g>
</g>
<g>
	<rect x="57.335" y="5.34" fill="none" width="201.314" height="97.478"/>
	<text transform="matrix(1 0 0 1 52.4141 76.1362)" fill="#3A1533" font-family="'FbTamlilCondensed-Regular'" font-size="90">
םיבכוכ</text>
	<path fill="#E46827" d="M54.243,151.108H47.1v-55c0-3.223-0.681-5.479-2.041-6.768c-1.361-1.289-3.349-1.897-5.962-1.826
		l-11.118,0.107v55.107v8.379H12.456v-6.821h8.701l-0.322-56.45h-4.727v-6.929l24.17-0.215c1.754,0,3.455,0.188,5.103,0.564
		c1.646,0.376,3.133,1.074,4.458,2.095c1.324,1.021,2.39,2.426,3.196,4.216c0.805,1.791,1.208,4.118,1.208,6.982V151.108z"/>
	<g>
		<path fill="#E46827" d="M68.219,151.345V99.109c0-7.812,5.68-11.309,11.309-11.309s11.309,3.497,11.309,11.309v52.236h7V99.109
			c0-12.02-9.211-18.309-18.309-18.309c-9.099,0-18.309,6.289-18.309,18.309v52.236H68.219z"/>
	</g>
	<path fill="#E46827" d="M125.226,151.108V96.43c0-3.223-0.591-5.514-1.772-6.875c-1.182-1.36-3.08-2.041-5.693-2.041h-15.2V80.8
		h16.274c1.754,0,3.438,0.188,5.049,0.564s3.062,1.057,4.351,2.041c1.289,0.985,2.318,2.373,3.088,4.163
		c0.771,1.791,1.155,4.118,1.155,6.982v56.558H125.226z"/>
	<path fill="#E46827" d="M161.859,151h-7.197l13.32-63.486h-28.145V80.8h36.309L161.859,151z M139.838,177.907v-79.06h7.036v79.06
		H139.838z"/>
	<text transform="matrix(1 0 0 1 3.6934 177.9048)" fill="#6D6E71" font-family="'FbTamlilCondensed-Regular'" font-size="29.3">
ןורתי וא ןורתפ</text>
	<g>
		<path fill="#E46827" d="M179.872,151.108v-6.821h20.249V87.514h-19.712V80.8h26.963v63.486h5.693v6.821H179.872z"/>
	</g>
</g>
<rect x="-1923.802" y="-48.739" fill="none" width="201.314" height="97.479"/>
<text transform="matrix(1 0 0 1 -1885.4063 21.27)" fill="#3A1533" font-family="'FbReforma-Regular'" font-size="89">יבכוכ</text>
<path fill="#E46827" d="M-1926.894,95.653h-7.144v-55c0-3.223-0.681-5.479-2.041-6.768c-1.361-1.289-3.349-1.897-5.962-1.826
	l-11.118,0.107v55.107v8.379h-15.522v-6.821h8.701l-0.322-56.45h-4.727v-6.929l24.17-0.215c1.754,0,3.455,0.188,5.103,0.563
	c1.646,0.377,3.133,1.074,4.458,2.096c1.324,1.02,2.39,2.426,3.196,4.216c0.805,1.791,1.208,4.118,1.208,6.982V95.653z"/>
<g>
	<path fill="#E46827" d="M-1912.918,95.891V43.655c0-7.813,5.68-11.31,11.309-11.31s11.309,3.497,11.309,11.31v52.235h7V43.655
		c0-12.021-9.21-18.31-18.309-18.31s-18.309,6.289-18.309,18.31v52.235H-1912.918z"/>
</g>
<path fill="#E46827" d="M-1855.911,95.653V40.976c0-3.223-0.591-5.514-1.772-6.875c-1.182-1.36-3.08-2.041-5.693-2.041h-15.2v-6.714
	h16.274c1.754,0,3.438,0.188,5.049,0.563c1.611,0.377,3.062,1.057,4.351,2.041c1.289,0.986,2.318,2.373,3.088,4.163
	c0.771,1.791,1.155,4.118,1.155,6.982v56.558H-1855.911z"/>
<path fill="#E46827" d="M-1819.277,95.546h-7.197l13.32-63.486h-28.145v-6.714h36.309L-1819.277,95.546z M-1841.299,120.453v-77.06
	h7.036v77.06H-1841.299z"/>
<text transform="matrix(1 0 0 1 -1977.4443 120.4507)" fill="#6D6E71" font-family="'FbTamlilCondensed-Regular'" font-size="29.3">
ןורתי וא ןורתפ</text>
<g>
	<path fill="#E46827" d="M-1801.265,95.653v-6.821h20.249V32.06h-19.712v-6.714h26.963v63.486h5.693v6.821H-1801.265z"/>
</g>
<polygon fill="#6D6E71" points="-1901.61,48.739 -1899.442,53.131 -1894.594,53.835 -1898.102,57.254 -1897.274,62.081 
	-1901.61,59.803 -1905.946,62.081 -1905.118,57.254 -1908.625,53.835 -1903.778,53.131 "/>
<text transform="matrix(0.8581 0 0 1 -1915.9536 -401.3599)" font-family="'FbArtishok-Regular'" font-size="89">ח</text>
</svg>
